# xmcd
#
# Track frame offsets: 
#        150
#        26493
#        46848
#        61663
#        81677
#        103934
#        126318
#        148161
#        162210
#        177112
#        196170
#        216551
#        234158
#        257856
#
# Disc length: 3771 seconds
#
# Revision: 0
# Processed by: cddbd v1.5.2PL0 Copyright (c) Steve Scherf et al.
# Submitted via: ExactAudioCopyFreeDBPlugin 1.0
#
DISCID=c90eb90e
DTITLE=Tommy Blaize - Life and Soul
DYEAR=2017
DGENRE=Soul
TTITLE0=You've Got a Friend
TTITLE1=Let's Stay Together
TTITLE2=Ain't No Mountain High Enough (ft Hayley Sanderson)
TTITLE3=(Sittin' on) the Dock of the Bay
TTITLE4=If You Don't Know Me By Now
TTITLE5=My Girl
TTITLE6=What's Going On
TTITLE7=Wonderful World
TTITLE8=I Get the Sweetest Feeling
TTITLE9=It's a Man's Man's Man's World
TTITLE10=Me and Mrs Jones
TTITLE11=Three Times a Lady
TTITLE12=Back on My Feet Again
TTITLE13=Have I Told You Lately
EXTD=
EXTT0=
EXTT1=
EXTT2=
EXTT3=
EXTT4=
EXTT5=
EXTT6=
EXTT7=
EXTT8=
EXTT9=
EXTT10=
EXTT11=
EXTT12=
EXTT13=
PLAYORDER=
